<?xml version="1.0" standalone="no"?>
<!DOCTYPE svg PUBLIC "-//W3C//DTD SVG 20010904//EN"
 "http://www.w3.org/TR/2001/REC-SVG-20010904/DTD/svg10.dtd">
<svg version="1.0" xmlns="http://www.w3.org/2000/svg"
 width="50.000000pt" height="50.000000pt" viewBox="0 0 50.000000 50.000000"
 preserveAspectRatio="xMidYMid meet">

<g transform="translate(0.000000,50.000000) scale(0.100000,-0.100000)"
fill="#000000" stroke="none">
<path d="M301 446 c-8 -10 -35 -16 -74 -18 -62 -3 -62 -3 -65 -35 -2 -18 2
-42 8 -54 7 -12 8 -19 2 -15 -6 3 -17 0 -25 -8 -8 -8 -18 -12 -22 -8 -4 4 -5
-19 -2 -50 3 -32 1 -60 -4 -63 -26 -17 7 -120 51 -160 44 -40 158 -23 180 27
6 13 17 34 25 48 17 29 20 76 5 85 -6 4 -8 28 -4 59 6 48 4 54 -15 59 -17 4
-21 13 -21 45 0 22 -6 54 -13 71 -12 28 -15 30 -26 17z m-29 -71 c6 -27 -10
-33 -30 -13 -18 18 -14 38 7 38 12 0 20 -9 23 -25z m-42 -10 c6 -8 9 -23 5
-36 -5 -15 -9 -18 -15 -9 -4 7 -13 9 -19 6 -6 -4 -11 0 -11 8 0 9 -4 16 -10
16 -5 0 -7 7 -4 15 8 19 38 19 54 0z m50 -97 c0 -19 -11 -24 -24 -10 -4 4 -13
7 -18 7 -6 0 -13 5 -15 12 -3 7 7 11 26 11 23 -1 31 -6 31 -20z m27 -35 c-3
-10 -5 -2 -5 17 0 19 2 27 5 18 2 -10 2 -26 0 -35z m-107 -6 c0 -10 -4 -15
-10 -12 -5 3 -10 18 -10 33 0 21 2 24 10 12 5 -8 10 -23 10 -33z m-60 -53 c0
-8 -4 -12 -10 -9 -5 3 -10 10 -10 16 0 5 5 9 10 9 6 0 10 -7 10 -16z m238 5
c-2 -6 -8 -10 -13 -10 -5 0 -11 4 -13 10 -2 6 4 11 13 11 9 0 15 -5 13 -11z
m-160 -13 c7 12 39 11 50 -2 4 -4 -1 -4 -10 -1 -9 3 -22 -1 -30 -10 -11 -15
-11 -16 7 -9 12 4 16 4 10 -2 -5 -5 -22 -12 -37 -16 -25 -6 -28 -3 -28 17 0
29 11 42 22 25 6 -9 10 -10 16 -2z m92 -33 c0 -11 -5 -11 -20 -3 -11 6 -20 13
-20 15 0 2 9 3 20 2 11 -1 20 -7 20 -14z m-35 -15 c39 -17 25 -33 -33 -36 -58
-3 -67 9 -24 32 33 19 26 18 57 4z m3 -55 c-16 -2 -40 -2 -55 0 -16 2 -3 4 27
4 30 0 43 -2 28 -4z"/>
<path d="M200 356 c0 -8 7 -17 16 -20 13 -5 14 -4 6 7 -7 8 -9 17 -5 20 3 4 1
7 -5 7 -7 0 -12 -6 -12 -14z"/>
</g>
</svg>
